# xmcd
#
# Track frame offsets: 
#        182
#        18040
#        34310
#        49090
#        64445
#        84140
#        105927
#        119360
#        137432
#        150957
#
# Disc length: 2222 seconds
#
# Revision: 0
# Processed by: cddbd v1.5.2PL0 Copyright (c) Steve Scherf et al.
# Submitted via: ExactAudioCopyFreeDBPlugin 1.0
#
DISCID=6d08ac0a
DTITLE=Suzy Gonzalez - Mas Que Nunca
DYEAR=1900
DGENRE=Pop
TTITLE0=Ponte Las Manos Sobre El Corazon
TTITLE1=Sin Lagrimas
TTITLE2=No Creo Mas En Ti
TTITLE3=Hasta Aqui Llego Mi Amor
TTITLE4=No Me Niegues Tu Amor
TTITLE5=Enamorada Mas Que Nunca
TTITLE6=Lluvia De Rosas
TTITLE7=Junto A Tu Querer
TTITLE8=Me He De Marchar
TTITLE9=Te Dejo En Libertad El Corazon
EXTD=
EXTT0=
EXTT1=
EXTT2=
EXTT3=
EXTT4=
EXTT5=
EXTT6=
EXTT7=
EXTT8=
EXTT9=
PLAYORDER=
